<svg width="512" height="512" viewBox="0 0 512 512" fill="none" xmlns="http://www.w3.org/2000/svg">
<path d="M506.68 393.76C488.44 398.4 477.16 393.96 467.04 378.76C444.32 344.72 419.24 312.24 395.04 279.16C391.92 274.88 388.68 270.68 384.64 265.36C356 304 327.4 340.8 300.56 379.08C290.96 392.76 280.88 398.72 262.96 393.88L370.64 249.36L270.4 118.84C287.64 115.48 299.56 117.2 310.12 132.64C333.44 166.72 359.16 199.16 384.8 233.48C410.6 199.28 436 166.8 460 133.04C469.64 119.36 480 114.16 497.32 119.2C484.2 136.6 471.36 153.72 458.44 170.72C441 193.64 423.88 216.84 405.8 239.28C399.36 247.28 400.4 252.48 406.16 260.04C439.6 304 472.64 348.4 506.68 393.76ZM5.3202 246.96C8.2002 232.52 10.1202 217.8 14.1202 203.64C38.1202 117.92 136.52 82.2801 204.12 135.4C243.72 166.56 253.56 210.48 251.6 260H28.4002C25.0402 348.84 89.0002 402.48 170.52 375.12C199.12 365.52 215.96 343.12 224.4 315.12C228.68 301.08 235.76 298.88 248.96 302.88C242.2 337.92 226.88 367.2 194.88 385.52C146.88 412.96 78.3602 404.08 42.3202 365.96C21.0402 343.56 12.0002 315.68 8.0002 285.56C7.4002 280.76 6.1602 276.04 5.2002 271.28C5.2802 263.173 5.3202 255.067 5.3202 246.96ZM28.8002 241H230.52C229.2 176.76 189.2 131.12 134.52 130.72C74.5202 130.24 31.4002 174.8 28.8002 241Z" fill="white"/>
</svg>
