<svg width="76" height="82" viewBox="0 0 76 82" fill="none" xmlns="http://www.w3.org/2000/svg">
<path d="M25.7527 58.0787C21.8967 60.2787 14.8697 63.0917 7.46973 60.2327C9.10573 62.3517 11.2087 64.2387 13.8927 65.8357C21.7937 70.4837 27.3717 69.3227 32.3697 67.2287C37.5987 65.0237 42.5957 61.4197 45.8507 62.5847C50.3817 64.0947 47.2447 69.4387 44.9187 71.5277C42.2467 73.9707 38.8767 75.7157 35.3907 76.8777C31.9037 78.0387 28.1867 78.8517 24.4687 79.6637C22.7237 79.8967 18.7737 80.4797 18.1927 80.8287C16.9137 81.4087 21.6767 82.1047 27.8387 81.8747C33.9967 81.7577 42.1317 80.7137 48.6397 77.9217C49.9177 77.3417 52.7057 75.9487 49.2197 76.6447C46.1987 77.3417 50.1507 74.9007 51.0787 74.0867C54.2177 71.7647 57.0067 68.7417 58.5167 65.6037C60.2577 61.9997 60.3747 58.0527 57.5857 54.5657C51.9277 47.5697 44.8147 48.3167 38.5007 51.0797C36.8757 51.9097 35.4047 52.6617 34.1147 53.3247C30.9157 55.1657 28.1897 57.0947 25.7527 58.0787Z" fill="url(#paint0_linear_2003_64)"/>
<path d="M25.7529 58.0786C24.1739 58.7176 22.7149 58.9646 21.3289 58.5166C20.3399 58.2056 19.5359 57.7036 18.8689 57.0836C12.3259 56.9866 6.75394 51.7056 3.06494 46.9556C3.15994 49.6226 3.57394 52.1906 4.36294 54.5646C5.09494 56.6046 6.12894 58.4956 7.46994 60.2316C14.8689 63.0916 21.8969 60.2786 25.7529 58.0786Z" fill="url(#paint1_linear_2003_64)"/>
<path d="M51.5428 0.0616047C33.8798 0.641605 12.4968 7.03561 2.03985 22.8386C0.412846 25.2796 -2.14315 30.9736 3.31785 28.3016C8.66185 25.7436 4.71284 34.6926 4.13084 37.0176C3.30584 40.3826 2.94885 43.7426 3.06485 46.9566C3.15985 49.6236 3.57384 52.1916 4.36284 54.5656C5.09484 56.6056 6.12885 58.4966 7.46985 60.2326C14.8698 63.0906 21.8968 60.2786 25.7528 58.0786C24.1738 58.7176 22.7148 58.9646 21.3288 58.5166C20.3398 58.2056 19.5358 57.7036 18.8688 57.0836C15.5388 53.9926 15.9288 47.6666 17.3778 43.9876C19.9358 37.5966 24.8158 32.4846 31.3238 28.0646C38.5278 23.1846 47.2448 19.3546 56.5408 15.7506C61.1898 14.1216 71.7658 10.9856 74.4368 8.89161C79.6658 4.70961 69.0898 -0.634395 51.5428 0.0616047Z" fill="url(#paint2_linear_2003_64)"/>
<path d="M34.1157 53.3246C35.4057 52.6626 36.8767 51.9106 38.5017 51.0796C37.6827 51.4376 36.8757 51.8256 36.0877 52.2396C35.4097 52.5916 34.7557 52.9556 34.1157 53.3246Z" fill="url(#paint3_linear_2003_64)"/>
<path d="M34.1157 53.3246C35.4057 52.6626 36.8767 51.9106 38.5017 51.0796C37.6827 51.4376 36.8757 51.8256 36.0877 52.2396C35.4097 52.5916 34.7557 52.9556 34.1157 53.3246Z" fill="url(#paint4_linear_2003_64)"/>
<defs>
<linearGradient id="paint0_linear_2003_64" x1="0.00072688" y1="65.5044" x2="75.7776" y2="65.5044" gradientUnits="userSpaceOnUse">
<stop stop-color="#EAFF00"/>
<stop offset="1"/>
</linearGradient>
<linearGradient id="paint1_linear_2003_64" x1="0.000541892" y1="54.2002" x2="75.7767" y2="54.2002" gradientUnits="userSpaceOnUse">
<stop stop-color="#00FFD4"/>
<stop offset="1"/>
</linearGradient>
<linearGradient id="paint2_linear_2003_64" x1="92.8978" y1="-5.17079" x2="-13.2054" y2="52.3978" gradientUnits="userSpaceOnUse">
<stop stop-color="#00FFD4"/>
<stop offset="0.0972" stop-color="#00F9CF"/>
<stop offset="0.2212" stop-color="#00EAC2"/>
<stop offset="0.36" stop-color="#00CFAC"/>
<stop offset="0.5094" stop-color="#00AB8E"/>
<stop offset="0.6674" stop-color="#007C67"/>
<stop offset="0.8327" stop-color="#004237"/>
<stop offset="1"/>
</linearGradient>
<linearGradient id="paint3_linear_2003_64" x1="-0.00468782" y1="52.2023" x2="75.7829" y2="52.2023" gradientUnits="userSpaceOnUse">
<stop stop-color="#00FFD4"/>
<stop offset="1"/>
</linearGradient>
<linearGradient id="paint4_linear_2003_64" x1="-32.7063" y1="52.2023" x2="121.841" y2="52.2023" gradientUnits="userSpaceOnUse">
<stop stop-color="#00FFD4"/>
<stop offset="1"/>
</linearGradient>
</defs>
</svg>
