<svg width="501" height="448" viewBox="0 0 501 448" fill="none" xmlns="http://www.w3.org/2000/svg">
<path d="M250.4 269.2C275.584 269.2 296 248.784 296 223.6C296 198.416 275.584 178 250.4 178C225.216 178 204.8 198.416 204.8 223.6C204.8 248.784 225.216 269.2 250.4 269.2Z" fill="#61DAFB"/>
<path d="M423.6 148.4C414.8 145.2 405.6 142 396 139.2C398.4 129.6 400.4 120 402 110.8C410.4 58 401.2 20.8 375.6 6.4C368 2 359.6 0 350 0C322 0 286.4 20.8 250.4 55.6C214.4 20.8 178.8 0 150.8 0C141.2 0 132.8 2 125.2 6.4C99.6 21.2 90.4 58.4 98.8 110.8C100.4 120 102.4 129.6 104.8 139.2C95.2 142 86 144.8 77.2 148.4C27.2 167.6 0 194 0 223.6C0 253.2 27.6 279.6 77.2 298.8C86 302 95.2 305.2 104.8 308C102.4 317.6 100.4 327.2 98.8 336.4C90.4 389.2 99.6 426.4 125.2 440.8C132.8 445.2 141.2 447.2 150.8 447.2C179.2 447.2 214.8 426.4 250.4 391.6C286.4 426.4 322 447.2 350 447.2C359.6 447.2 368 445.2 375.6 440.8C401.2 426 410.4 388.8 402 336.4C400.4 327.2 398.4 317.6 396 308C405.6 305.2 414.8 302.4 423.6 298.8C473.6 279.6 500.8 253.2 500.8 223.6C500.8 194 473.6 167.6 423.6 148.4ZM364.4 26.4C380.8 36 386.4 65.6 379.6 107.6C378.4 116 376.4 124.8 374 134C353.2 129.2 331.2 126 308 124C294.4 104.8 280.4 87.6 266.4 72C296 42.8 326 22.8 350.4 22.8C355.6 22.8 360.4 24 364.4 26.4ZM319.6 263.6C312.4 276.4 304 289.2 295.2 302C280.4 303.2 265.6 303.6 250.4 303.6C234.8 303.6 220 303.2 205.6 302C196.8 289.2 188.8 276.4 181.6 263.6C174 250.4 166.8 236.8 160.4 223.6C166.8 210.4 174 196.8 181.6 183.6C188.8 170.8 197.2 158 206 145.2C220.8 144 235.6 143.6 250.8 143.6C266.4 143.6 281.2 144 295.6 145.2C304.4 158 312.4 170.8 319.6 183.6C327.2 196.8 334.4 210.4 340.8 223.6C334 236.8 327.2 250 319.6 263.6ZM352.8 250.4C358.8 264.4 363.6 278 368 291.6C354.4 294.8 340 297.2 324.8 299.2C329.6 291.6 334.8 283.6 339.2 275.2C344 266.8 348.4 258.4 352.8 250.4ZM250.4 358.8C240.8 348.4 231.6 337.2 222.8 325.6C232 326 241.2 326.4 250.4 326.4C259.6 326.4 268.8 326 278 325.6C269.2 337.2 260 348.4 250.4 358.8ZM176 298.8C160.8 296.8 146.4 294.4 132.8 291.2C137.2 278 142 264 148 250C152.4 258 156.8 266.4 161.6 274.4C166.4 283.2 171.2 290.8 176 298.8ZM148 196.8C142 182.8 137.2 169.2 132.8 155.6C146.4 152.4 160.8 150 176 148C171.2 155.6 166 163.6 161.6 172C156.8 180.4 152.4 188.8 148 196.8ZM250.4 88.4C260 98.8 269.2 110 278 121.6C268.8 121.2 259.6 120.8 250.4 120.8C241.2 120.8 232 121.2 222.8 121.6C231.6 110 240.8 98.8 250.4 88.4ZM339.2 172.4L324.8 148.4C340 150.4 354.4 152.8 368 156C363.6 169.2 358.8 183.2 352.8 197.2C348.4 188.8 344 180.4 339.2 172.4ZM121.2 107.6C114.4 65.6 120 36 136.4 26.4C140.4 24 145.2 22.8 150.4 22.8C174.4 22.8 204.4 42.4 234.4 72C220.4 87.2 206.4 104.8 192.8 124C169.6 126 147.6 129.6 126.8 134C124.4 124.8 122.8 116 121.2 107.6ZM22.4 223.6C22.4 204.8 45.2 184.8 85.2 170C93.2 166.8 102 164 110.8 161.6C117.2 181.6 125.2 202.8 134.8 224C125.2 245.2 116.8 266 110.8 286C55.6 270 22.4 246 22.4 223.6ZM136.4 420.8C120 411.2 114.4 381.6 121.2 339.6C122.4 331.2 124.4 322.4 126.8 313.2C147.6 318 169.6 321.2 192.8 323.2C206.4 342.4 220.4 359.6 234.4 375.2C204.8 404.4 174.8 424.4 150.4 424.4C145.2 424.4 140.4 423.2 136.4 420.8ZM379.6 339.6C386.4 381.6 380.8 411.2 364.4 420.8C360.4 423.2 355.6 424.4 350.4 424.4C326.4 424.4 296.4 404.8 266.4 375.2C280.4 360 294.4 342.4 308 323.2C331.2 321.2 353.2 317.6 374 313.2C376.4 322.4 378 331.2 379.6 339.6ZM415.6 277.2C407.6 280.4 398.8 283.2 390 285.6C383.6 265.6 375.6 244.4 366 223.2C375.6 202 384 181.2 390 161.2C445.2 177.2 478.4 201.2 478.4 223.6C478.4 242.4 455.2 262.4 415.6 277.2Z" fill="#61DAFB"/>
</svg>
