<svg width="512" height="512" viewBox="0 0 512 512" fill="none" xmlns="http://www.w3.org/2000/svg">
<path fill-rule="evenodd" clip-rule="evenodd" d="M330.813 190.634C335.798 205.056 339.389 219.781 340.57 235.042C342.036 253.976 341.365 272.775 337.373 291.398C337.265 291.911 337.035 292.392 336.864 292.889C335.612 292.892 334.335 292.737 333.111 292.926C322.77 294.551 312.438 296.235 302.107 297.909C291.427 299.639 280.732 301.301 270.071 303.15C266.293 303.802 261.618 303.022 260.093 308.247C260.049 308.39 259.614 308.415 259.363 308.496L259.879 277.273C259.701 252.162 259.527 227.05 259.354 201.938L264.33 201.083C272.469 199.751 280.607 198.399 288.752 197.104C298.472 195.56 308.201 194.06 317.927 192.553C322.217 191.885 326.513 191.273 330.813 190.634Z" fill="#439934"/>
<path fill-rule="evenodd" clip-rule="evenodd" d="M249.085 399.512C243.835 394.999 238.402 390.684 233.37 385.938C206.291 360.397 186.485 330.337 176.731 294.095C174.044 284.12 172.252 273.984 171.677 263.677C171.273 256.464 170.689 249.186 171.199 242.01C172.556 222.924 175.315 204.022 180.912 185.639L181.22 185.21C181.764 185.934 182.546 186.574 182.823 187.391C188.287 203.482 193.711 219.585 199.106 235.698C216.061 286.332 232.994 336.978 249.976 387.6C250.309 388.587 251.169 389.398 251.787 390.29L249.085 399.512Z" fill="#45A538"/>
<path fill-rule="evenodd" clip-rule="evenodd" d="M330.813 190.633C326.513 191.273 322.214 191.885 317.924 192.547C308.198 194.054 298.469 195.554 288.749 197.098C280.604 198.393 272.466 199.744 264.327 201.077L259.35 201.931L259.313 198.685C259.149 196.017 258.866 193.352 258.835 190.683C258.62 173.666 258.487 156.65 258.276 139.633C258.145 128.981 257.949 118.333 257.732 107.684C257.598 101.067 257.456 94.4477 257.157 87.8404C256.996 84.2899 256.424 80.7579 256.191 77.2073C256.061 75.1664 256.241 73.11 256.281 71.0598C258.819 75.9772 261.301 80.9319 263.911 85.812C268.033 93.5282 274.6 99.2129 280.511 105.416C303.88 129.932 320.471 158.436 330.813 190.633Z" fill="#46A037"/>
<path fill-rule="evenodd" clip-rule="evenodd" d="M259.359 308.492C259.61 308.412 260.048 308.387 260.089 308.244C261.614 303.019 266.289 303.799 270.067 303.146C280.728 301.301 291.423 299.636 302.103 297.906C312.434 296.232 322.766 294.548 333.107 292.923C334.331 292.731 335.608 292.889 336.86 292.886C334.928 299.782 333.405 306.827 330.955 313.534C328.171 321.142 324.804 328.566 321.228 335.844C315.886 346.726 309.229 356.874 301.494 366.172C295.533 373.341 288.888 379.967 282.228 386.512C278.547 390.131 274.207 393.079 270.169 396.331L269.122 395.617L265.351 392.392L261.449 383.841C258.762 373.829 257.352 363.637 257.119 353.28L257.191 351.537L257.722 344.001C257.899 341.429 258.135 338.86 258.244 336.282C258.644 327.019 258.992 317.756 259.359 308.492Z" fill="#409433"/>
<path fill-rule="evenodd" clip-rule="evenodd" d="M259.358 308.492C258.992 317.756 258.644 327.019 258.249 336.285C258.141 338.863 257.905 341.432 257.728 344.005L255.351 344.902C250.073 329.364 244.793 313.991 239.627 298.577C231.084 273.077 222.644 247.536 214.114 222.03C207.227 201.441 200.285 180.873 193.301 160.315C192.975 159.352 192.037 158.601 191.385 157.749L206.594 129.786C207.115 130.693 207.805 131.541 208.134 132.516C215.17 153.338 222.194 174.164 229.158 195.01C238.216 222.129 247.219 249.269 256.271 276.391C256.631 277.475 257.227 278.476 257.796 279.69L259.877 277.267C259.703 287.677 259.529 298.083 259.358 308.492Z" fill="#4FAA41"/>
<path fill-rule="evenodd" clip-rule="evenodd" d="M191.389 157.753C192.041 158.604 192.976 159.356 193.305 160.319C200.288 180.877 207.231 201.444 214.118 222.033C222.648 247.539 231.088 273.08 239.631 298.58C244.793 313.991 250.074 329.367 255.355 344.905L257.732 344.008L257.2 351.544L256.719 353.28C255.893 361.531 255.197 369.8 254.19 378.032C253.684 382.157 252.609 386.208 251.792 390.293C251.177 389.401 250.313 388.59 249.981 387.603C232.999 336.978 216.066 286.335 199.111 235.701C193.715 219.588 188.292 203.485 182.827 187.394C182.551 186.577 181.771 185.937 181.225 185.213C184.611 176.059 188 166.904 191.389 157.753Z" fill="#4AA73C"/>
<path fill-rule="evenodd" clip-rule="evenodd" d="M259.873 277.27L257.792 279.693C257.224 278.479 256.627 277.475 256.267 276.394C247.218 249.273 238.213 222.132 229.155 195.014C222.19 174.167 215.167 153.342 208.131 132.52C207.804 131.544 207.115 130.693 206.59 129.789L225.399 105.047C225.992 105.839 226.837 106.544 227.145 107.436C232.367 122.722 237.542 138.027 242.686 153.342C247.491 167.643 252.226 181.967 257.087 196.25C257.413 197.207 258.547 197.884 259.305 198.692L259.342 201.938C259.522 227.044 259.7 252.159 259.873 277.27Z" fill="#57AE47"/>
<path fill-rule="evenodd" clip-rule="evenodd" d="M259.312 198.685C258.554 197.878 257.421 197.201 257.094 196.244C252.233 181.961 247.499 167.637 242.693 153.335C237.549 138.021 232.374 122.719 227.152 107.429C226.845 106.538 226 105.833 225.406 105.041C231.523 99.0516 237.45 92.8481 243.812 87.1355C249.468 82.0597 254.016 76.6173 254.224 68.5967C254.233 68.2643 254.407 67.9319 254.675 67L256.287 71.0569C256.246 73.1102 256.063 75.1636 256.197 77.2044C256.43 80.755 257.001 84.287 257.163 87.8376C257.461 94.4448 257.604 101.064 257.737 107.681C257.952 118.33 258.147 128.978 258.281 139.63C258.489 156.647 258.626 173.664 258.84 190.68C258.865 193.355 259.145 196.017 259.312 198.685Z" fill="#60B24F"/>
<path fill-rule="evenodd" clip-rule="evenodd" d="M251.787 390.29C252.604 386.205 253.678 382.151 254.185 378.029C255.194 369.8 255.887 361.528 256.713 353.277L256.918 353.246L257.123 353.28C257.356 363.637 258.767 373.829 261.454 383.841C260.907 384.561 260.133 385.204 259.844 386.018C257.586 392.386 255.458 398.804 253.188 405.172C252.877 406.042 252.013 406.719 251.404 407.483L249.084 399.512L251.787 390.29Z" fill="#A9AA88"/>
<path fill-rule="evenodd" clip-rule="evenodd" d="M251.406 407.487C252.015 406.722 252.882 406.045 253.189 405.175C255.46 398.807 257.591 392.393 259.846 386.022C260.135 385.208 260.906 384.565 261.455 383.844L265.354 392.399C264.583 393.492 263.521 394.477 263.092 395.695L255.625 417.623C255.317 418.502 254.267 419.123 253.565 419.866L251.406 407.487Z" fill="#B6B598"/>
<path fill-rule="evenodd" clip-rule="evenodd" d="M253.564 419.862C254.27 419.123 255.316 418.498 255.624 417.619L263.092 395.691C263.517 394.477 264.583 393.489 265.353 392.396L269.127 395.617C267.304 397.419 266.291 399.5 266.9 402.131L265.754 405.883C265.232 406.526 264.477 407.086 264.219 407.822C261.613 415.286 259.125 422.791 256.5 430.256C256.168 431.203 255.245 431.946 254.593 432.778C254.254 428.47 253.909 424.171 253.564 419.862Z" fill="#C2C1A7"/>
<path fill-rule="evenodd" clip-rule="evenodd" d="M254.596 432.779C255.245 431.943 256.168 431.2 256.503 430.256C259.128 422.795 261.616 415.29 264.222 407.822C264.48 407.089 265.232 406.527 265.757 405.884L264.176 423.108C263.753 423.596 263.141 424.022 262.94 424.59C261.153 429.604 259.47 434.655 257.677 439.668C257.308 440.703 256.599 441.616 256.046 442.582C255.556 441.939 254.677 441.318 254.636 440.647C254.478 438.034 254.586 435.403 254.596 432.779Z" fill="#CECDB7"/>
<path fill-rule="evenodd" clip-rule="evenodd" d="M256.045 442.582C256.598 441.613 257.306 440.7 257.676 439.668C259.471 434.658 261.152 429.607 262.938 424.59C263.14 424.022 263.755 423.599 264.174 423.108L264.212 434.416L260.428 444.12L256.045 442.582Z" fill="#DBDAC7"/>
<path fill-rule="evenodd" clip-rule="evenodd" d="M260.428 444.123L264.211 434.419L264.991 445.9L260.428 444.123Z" fill="#EBE9DC"/>
<path fill-rule="evenodd" clip-rule="evenodd" d="M266.9 402.134C266.291 399.503 267.301 397.419 269.127 395.62L270.174 396.335L266.9 402.134Z" fill="#CECDB7"/>
<path fill-rule="evenodd" clip-rule="evenodd" d="M257.123 353.284L256.918 353.249L256.713 353.28L257.194 351.544L257.123 353.284Z" fill="#4FAA41"/>
</svg>
