<svg width="1152" height="326" viewBox="0 0 1152 326" fill="none" xmlns="http://www.w3.org/2000/svg">
<path d="M1059.73 115.635C1056.93 115.635 1054.2 116.214 1051.78 117.58L975.407 161.687C970.464 164.536 967.46 169.913 967.46 175.636V263.69C967.46 269.408 970.464 274.779 975.407 277.635L995.353 289.149C1005.04 293.925 1008.62 293.851 1013.03 293.851C1027.38 293.851 1035.57 285.144 1035.57 270.014V183.094C1035.57 181.865 1034.5 180.986 1033.3 180.986H1023.73C1022.5 180.986 1021.46 181.865 1021.46 183.094V270.014C1021.46 276.72 1014.47 283.465 1003.14 277.797L982.38 265.635C981.645 265.236 981.082 264.531 981.082 263.69V175.634C981.082 174.8 981.639 173.95 982.38 173.526L1058.6 129.584C1058.94 129.382 1059.33 129.276 1059.73 129.276C1060.13 129.276 1060.52 129.382 1060.86 129.584L1137.08 173.529C1137.81 173.966 1138.38 174.775 1138.38 175.638V263.693C1138.38 264.533 1137.96 265.394 1137.24 265.8L1060.86 309.745C1060.21 310.135 1059.31 310.135 1058.6 309.745L1038.97 298.07C1038.68 297.908 1038.34 297.823 1038 297.823C1037.66 297.823 1037.33 297.908 1037.03 298.07C1031.61 301.14 1030.59 301.496 1025.51 303.258C1024.26 303.696 1022.36 304.374 1026.16 306.504L1051.78 321.582C1054.2 322.976 1056.94 323.704 1059.73 323.691C1062.52 323.709 1065.26 322.981 1067.68 321.584L1144.06 277.637C1149 274.763 1152 269.41 1152 263.693V175.636C1152 169.916 1149 164.547 1144.06 161.692L1067.68 117.584C1065.28 116.216 1062.54 115.637 1059.73 115.637L1059.73 115.635Z" fill="#83CD29"/>
<path d="M1080.16 178.554C1058.41 178.554 1045.46 187.811 1045.46 203.204C1045.46 219.901 1058.32 224.489 1079.19 226.554C1104.16 228.999 1106.11 232.666 1106.11 237.582C1106.11 246.108 1099.31 249.744 1083.24 249.744C1063.06 249.744 1058.62 244.704 1057.14 234.663C1056.96 233.586 1056.13 232.716 1055.03 232.716H1045.13C1043.92 232.716 1042.87 233.766 1042.87 234.988C1042.87 247.841 1049.86 263.041 1083.24 263.041C1107.41 263.041 1121.35 253.555 1121.35 236.933C1121.35 220.457 1110.09 216.033 1086.65 212.934C1062.96 209.799 1060.7 208.264 1060.7 202.718C1060.7 198.138 1062.62 192.012 1080.16 192.012C1095.83 192.012 1101.63 195.393 1104 205.961C1104.21 206.953 1105.08 207.744 1106.11 207.744H1116C1116.61 207.744 1117.2 207.37 1117.62 206.932C1118.04 206.466 1118.33 205.941 1118.27 205.312C1116.74 187.114 1104.6 178.554 1080.16 178.554Z" fill="#83CD29"/>
<path d="M610.703 0.176096C609.85 0.176662 609.011 0.399595 608.269 0.822942C607.533 1.25403 606.921 1.86962 606.494 2.60905C606.068 3.34849 605.841 4.18626 605.837 5.03983V129.094C605.837 130.312 605.272 131.402 604.217 132.013C603.7 132.314 603.112 132.473 602.514 132.473C601.916 132.473 601.328 132.314 600.811 132.013L580.541 120.338C579.062 119.483 577.384 119.032 575.676 119.032C573.967 119.032 572.289 119.483 570.811 120.338L489.892 167.04C486.867 168.786 485.028 172.142 485.028 175.636V269.041C485.028 272.53 486.87 275.726 489.892 277.472L570.811 324.176C572.289 325.034 573.967 325.485 575.676 325.485C577.384 325.485 579.063 325.034 580.541 324.176L661.459 277.472C662.941 276.62 664.171 275.391 665.025 273.91C665.88 272.43 666.328 270.75 666.325 269.041V36.1763C666.323 34.4269 665.857 32.7094 664.974 31.1992C664.091 29.689 662.823 28.4402 661.299 27.5803L613.135 0.660667C612.38 0.239203 611.542 0.164827 610.703 0.176096ZM90.1617 116.771C88.6201 116.831 87.1687 117.102 85.7848 117.904L4.86378 164.608C3.38147 165.459 2.15079 166.688 1.29659 168.169C0.442393 169.65 -0.00491797 171.33 4.07838e-05 173.039L0.162316 298.394C0.162316 300.137 1.06159 301.757 2.59418 302.609C3.32895 303.051 4.16999 303.284 5.02718 303.284C5.88437 303.284 6.72541 303.051 7.46018 302.609L55.4597 275.043C58.5001 273.235 60.4857 270.093 60.4857 266.609V208.068C60.4857 204.575 62.3226 201.37 65.3517 199.634L85.7826 187.797C87.2598 186.938 88.9398 186.49 90.6486 186.499C92.3164 186.499 94.0293 186.916 95.5123 187.797L115.945 199.634C117.429 200.485 118.661 201.714 119.516 203.195C120.37 204.677 120.817 206.358 120.811 208.068V266.607C120.811 270.091 122.817 273.255 125.837 275.04L173.837 302.609C174.572 303.051 175.413 303.284 176.27 303.284C177.127 303.284 177.968 303.051 178.703 302.609C179.443 302.181 180.057 301.566 180.484 300.826C180.911 300.086 181.136 299.247 181.137 298.392L181.295 173.039C181.304 171.329 180.859 169.647 180.004 168.165C179.15 166.684 177.917 165.456 176.431 164.608L95.5123 117.904C94.1442 117.102 92.6883 116.834 91.1354 116.771H90.1617ZM817.297 117.904C815.607 117.904 813.95 118.332 812.434 119.202L731.515 165.906C730.033 166.758 728.803 167.987 727.948 169.468C727.094 170.948 726.645 172.628 726.649 174.338V267.743C726.649 271.256 728.628 274.439 731.675 276.176L811.947 321.906C814.91 323.597 818.53 323.725 821.514 322.064L870.163 294.984C871.707 294.128 872.75 292.528 872.757 290.77C872.765 289.914 872.544 289.071 872.116 288.33C871.689 287.588 871.07 286.974 870.325 286.553L788.919 239.849C787.396 238.979 786.325 237.219 786.325 235.47V206.283C786.325 204.536 787.407 202.936 788.919 202.066L814.216 187.471C814.956 187.043 815.795 186.817 816.649 186.817C817.504 186.817 818.343 187.043 819.082 187.471L844.377 202.066C845.118 202.492 845.733 203.106 846.161 203.846C846.588 204.586 846.813 205.426 846.811 206.281V229.308C846.809 230.163 847.033 231.003 847.46 231.743C847.887 232.483 848.502 233.097 849.243 233.523C850.76 234.4 852.594 234.402 854.107 233.523L902.595 205.312C904.074 204.456 905.303 203.226 906.157 201.746C907.011 200.266 907.461 198.587 907.461 196.878V174.34C907.461 170.858 905.613 167.655 902.595 165.906L822.163 119.202C820.685 118.347 819.005 117.898 817.297 117.904ZM575.35 187.635C575.774 187.635 576.27 187.739 576.648 187.957L604.379 204.011C605.132 204.446 605.677 205.251 605.677 206.119V238.227C605.677 239.099 605.136 239.901 604.379 240.336L576.648 256.39C576.278 256.602 575.859 256.713 575.432 256.713C575.006 256.713 574.587 256.602 574.216 256.39L546.488 240.336C545.733 239.899 545.189 239.099 545.189 238.227V206.119C545.189 205.249 545.735 204.451 546.488 204.011L574.216 187.96C574.557 187.748 574.951 187.636 575.352 187.637L575.35 187.635Z" fill="#404137"/>
<path d="M333.242 117.418C331.556 117.418 329.889 117.846 328.379 118.716L247.46 165.257C244.433 166.999 242.594 170.362 242.594 173.851V267.256C242.594 270.749 244.435 273.941 247.46 275.69L328.379 322.391C329.856 323.249 331.535 323.702 333.243 323.702C334.952 323.702 336.631 323.249 338.108 322.391L419.027 275.69C420.508 274.836 421.738 273.607 422.592 272.126C423.446 270.645 423.894 268.965 423.891 267.256V173.851C423.891 170.357 422.052 166.999 419.027 165.257L338.108 118.716C336.629 117.861 334.95 117.414 333.242 117.418ZM817.135 200.77C816.812 200.77 816.454 200.77 816.163 200.933L800.596 210.013C800.306 210.175 800.063 210.409 799.892 210.694C799.721 210.979 799.628 211.304 799.622 211.636V229.473C799.622 230.144 800.01 230.76 800.596 231.096L816.163 240.014C816.747 240.352 817.369 240.352 817.946 240.014L833.513 231.093C833.802 230.931 834.044 230.696 834.215 230.412C834.386 230.128 834.479 229.804 834.487 229.473V211.634C834.479 211.302 834.386 210.979 834.215 210.694C834.044 210.41 833.802 210.176 833.513 210.013L817.946 200.93C817.658 200.761 817.459 200.77 817.135 200.77Z" fill="#83CD29"/>
</svg>
